<svg width="40" height="40" viewBox="0 0 40 40" fill="none" xmlns="http://www.w3.org/2000/svg">
<rect width="40" height="40" rx="20" fill="white"/>
<path d="M26.7843 22.214C25.4231 21.8205 24.1572 22.1888 23.047 23.2731L21.9797 24.3325C19.4197 22.8648 17.1346 20.5793 15.6673 18.0203L16.7307 16.9489L16.7316 16.948C17.816 15.8376 18.1792 14.5766 17.7859 13.2155C17.5028 12.2359 16.8247 11.2231 15.6761 10.0319C15.0664 9.39971 14.2467 9.03379 13.3689 9.00214C12.4916 8.97049 11.5644 9.29013 10.9302 9.92187C9.65306 11.199 8.98974 12.9817 9.00012 15.0659C9.01548 18.1385 10.4828 21.5784 12.9745 24.5338C13.0072 24.5912 13.0461 24.6461 13.0913 24.6977C15.7602 27.7469 19.3938 30.264 23.4715 30.8824C23.6003 30.9043 23.7291 30.9245 23.858 30.943C23.9172 30.9515 23.976 30.9546 24.0338 30.9527C24.355 30.9842 24.6713 31 24.9824 31C26.8113 31 28.8527 30.4343 30.1368 29.0065C30.7235 28.3529 31.0295 27.5089 30.9978 26.6311C30.9661 25.7532 30.6002 24.9335 29.9679 24.3238C28.7768 23.1752 27.764 22.497 26.7843 22.214ZM24.0526 28.9501C20.8006 28.4605 17.8852 26.733 15.5759 24.4242C12.7115 21.5597 11.0066 18.054 10.9917 15.056C10.984 13.5079 11.4551 12.2252 12.327 11.3423C12.884 10.8453 13.7239 10.8766 14.2425 11.4144C15.3362 12.5486 15.8174 13.3588 15.923 13.9895C16.0254 14.6012 15.7774 15.0737 15.3092 15.5539L13.7386 17.1364C13.4491 17.428 13.3685 17.8676 13.5356 18.243C15.0258 21.5907 18.3958 24.9681 21.757 26.4643C22.1324 26.6315 22.572 26.5508 22.8636 26.2613L24.4466 24.6901C24.9268 24.222 25.3989 23.9745 26.0105 24.0769C26.6413 24.1825 27.4514 24.6637 28.5855 25.7574C29.1225 26.2751 29.1493 27.1217 28.6518 27.6794C27.7689 28.5513 26.4929 29.0185 24.944 29.0083C24.6573 29.0069 24.3595 28.9874 24.0526 28.9501Z" fill="#005BFF"/>
</svg>
