<svg width="17" height="16" viewBox="0 0 17 16" fill="none" xmlns="http://www.w3.org/2000/svg">
<path d="M13.9596 3.29308L6.66658 10.5861L3.37359 7.29308C3.28134 7.19757 3.17099 7.12139 3.04899 7.06898C2.92699 7.01657 2.79577 6.98898 2.66299 6.98783C2.53021 6.98668 2.39853 7.01198 2.27563 7.06226C2.15273 7.11254 2.04108 7.18679 1.94719 7.28069C1.8533 7.37458 1.77904 7.48623 1.72876 7.60913C1.67848 7.73202 1.65318 7.8637 1.65433 7.99648C1.65549 8.12926 1.68307 8.26048 1.73548 8.38249C1.78789 8.50449 1.86407 8.61483 1.95959 8.70708L5.95959 12.7071C6.05224 12.8003 6.1624 12.8742 6.28373 12.9247C6.40507 12.9751 6.53518 13.0011 6.66658 13.0011C6.79799 13.0011 6.9281 12.9751 7.04944 12.9247C7.17077 12.8742 7.28093 12.8003 7.37358 12.7071L15.3736 4.70708C15.4691 4.61483 15.5453 4.50449 15.5977 4.38249C15.6501 4.26048 15.6777 4.12926 15.6788 3.99648C15.68 3.8637 15.6547 3.73202 15.6044 3.60913C15.5541 3.48623 15.4799 3.37458 15.386 3.28069C15.2921 3.18679 15.1804 3.11254 15.0575 3.06226C14.9346 3.01198 14.803 2.98668 14.6702 2.98783C14.5374 2.98898 14.4062 3.01657 14.2842 3.06898C14.1622 3.12139 14.0518 3.19757 13.9596 3.29308Z" fill="#005BFF"/>
</svg>
