<svg width="450" height="150" viewBox="0 0 450 150" fill="none" xmlns="http://www.w3.org/2000/svg">
<path fill-rule="evenodd" clip-rule="evenodd" d="M77.7002 139.563C77.7002 141.876 79.5752 143.751 81.8883 143.751H139.683C141.995 143.751 143.885 141.871 143.74 139.562C141.666 106.355 115.098 79.7856 81.8889 77.7119C79.5808 77.5675 77.7002 79.4562 77.7002 81.7694V139.563Z" fill="#254078"/>
<path fill-rule="evenodd" clip-rule="evenodd" d="M66.0475 81.892C66.0475 79.5789 64.1725 77.7039 61.8594 77.7039H4.06527C1.75226 77.7039 -0.136523 79.5845 0.00775229 81.8926C2.08206 115.101 28.6506 141.669 61.8585 143.744C64.1669 143.888 66.0475 141.999 66.0475 139.686V81.892Z" fill="#254078"/>
<path fill-rule="evenodd" clip-rule="evenodd" d="M66.0475 61.8594C66.0475 64.1725 64.1725 66.0475 61.8594 66.0475H4.06527C1.75226 66.0475 -0.136523 64.1669 0.00775229 61.8585C2.08206 28.6506 28.6506 2.08206 61.8585 0.00775229C64.1669 -0.136523 66.0475 1.75226 66.0475 4.06527V61.8594Z" fill="#FF62FD"/>
<path fill-rule="evenodd" clip-rule="evenodd" d="M77.7002 4.18797C77.7002 1.87502 79.5752 0 81.8883 0H139.683C141.995 0 143.885 1.88032 143.74 4.18877C141.666 37.3967 115.098 63.9656 81.8889 66.04C79.5808 66.1837 77.7002 64.295 77.7002 61.9821V4.18797Z" fill="#0078FF"/>
<path d="M249.233 81.0274C247.32 89.1562 243.137 95.7705 236.682 100.871C230.227 105.891 222.815 108.402 214.448 108.402C204.566 108.402 196.158 104.975 189.225 98.1212C182.372 91.268 178.945 82.8605 178.945 72.8993C178.945 63.0968 182.332 54.7693 189.106 47.9158C195.88 41.0624 204.167 37.6356 213.97 37.6356C222.576 37.6356 230.147 40.1857 236.682 45.286C243.216 50.3862 247.36 57.1202 249.113 65.488H229.031C226.162 59.2719 221.222 56.1639 214.208 56.1639C209.587 56.1639 205.881 57.7975 203.092 61.0648C200.302 64.3324 198.908 68.3168 198.908 73.0187C198.908 77.7999 200.342 81.8243 203.211 85.0918C206.16 88.2793 209.985 89.873 214.687 89.873C221.142 89.873 225.923 86.9249 229.031 81.0274H249.233ZM293.144 57.5983C288.044 57.7577 284.139 58.6742 281.43 60.3477C278.8 61.9415 277.485 65.0893 277.485 69.7912V106.25H257.642V39.9068H276.289V46.9595H276.528C279.716 40.7436 285.255 37.6356 293.144 37.6356V57.5983ZM367.552 106.25H347.709V99.0774H347.47C345.797 102.266 343.127 104.656 339.461 106.25C335.875 107.764 332.09 108.521 328.105 108.521C318.143 108.521 310.095 105.134 303.958 98.3605C297.822 91.5868 294.754 83.1393 294.754 73.0187C294.754 63.1368 297.862 54.7693 304.078 47.9158C310.294 41.0624 318.303 37.6356 328.105 37.6356C332.09 37.6356 335.835 38.4325 339.342 40.0264C342.928 41.5405 345.637 43.8515 347.47 46.9595H347.709V39.9068H367.552V106.25ZM347.709 73.0187C347.709 68.1574 346.115 64.133 342.928 60.9454C339.82 57.7577 335.835 56.1639 330.974 56.1639C326.192 56.1639 322.248 57.8374 319.14 61.1844C316.112 64.4518 314.597 68.4762 314.597 73.2574C314.597 77.8799 316.191 81.8243 319.378 85.0918C322.567 88.3593 326.472 89.993 331.093 89.993C335.875 89.993 339.82 88.3593 342.928 85.0918C346.115 81.8243 347.709 77.7999 347.709 73.0187ZM446.698 54.9685H437.135V106.25H417.292V54.9685H400.198V106.25H380.355V54.9685H372.943V39.9068H380.355V38.1137C380.355 24.5662 388.802 17.7925 405.697 17.7925H408.685V32.7346H406.414C405.537 32.7346 404.7 32.8541 403.903 33.0932C403.107 33.2526 402.27 33.8503 401.393 34.8862C400.597 35.9222 400.198 37.277 400.198 38.9505V39.9068H417.292V17.7925H437.135V39.9068H446.698V54.9685Z" fill="#121212"/>
</svg>
