<svg xmlns="http://www.w3.org/2000/svg" xmlns:xlink="http://www.w3.org/1999/xlink" version="1.0" id="katman_1" x="0px" y="0px" viewBox="0 0 800 600" style="enable-background:new 0 0 800 600;" xml:space="preserve">
<symbol id="fedex" viewBox="-320 -95.6 640 191.2" fill="#ffffff">
	<path d="M266,28.4l53.3-59.9h-62.4L235.2-6.7l-22.5-24.8H94v-16h56.1v-48.1H-1.1v75.5h-0.5c-9.6-11-21.5-14.8-35.4-14.8   c-28.4,0-49.8,19.4-57.3,44.9c-18-59.4-97.4-57.6-121.9-14v-24.2H-271v-26.2h60v-41.1h-109V88.9h49V11.4h48.9   c-1.5,5.7-2.3,11.8-2.3,18.2c0,73.1,102.6,91.4,130.2,23.7h-42c-14.7,20.9-45.8,8.9-45.8-14.6h85.5c3.7,30.5,27.4,56.9,60.1,56.9   c14.1,0,27-6.9,34.9-18.6H-1v11.9h212.2l22.1-25l22.3,25H320L266,28.4z M-180.7,11.8c6.1-26.3,41.7-25.6,46.5,0H-180.7z    M-27.3,60.7c-34.6,0-34-62.8,0-62.8C5.3-2.1,7.2,60.7-27.3,60.7z M140.5,79.8H46.1V-86.7h95v30.2H85v33.9h55.5V5.5H84.4v44.7h56.1   V79.8L140.5,79.8z M94.6,40V15.6h56.1v-44l50.7,57l-50.7,57V40H94.6z M233.2,50.3l-26.1,29.5H169l45.6-51.2L169-22.6h39.7   l26.6,29.3l25.6-29.3h38.5l-45.4,51l46,51.4h-40.5L233.2,50.3L233.2,50.3z" fill="#ffffff"/>
</symbol>
<use xlink:href="#fedex" width="640" height="191.2" x="-320" y="-95.6" transform="matrix(1 0 0 1 410.0334 295.3111)" style="overflow:visible;" fill="#ffffff"/>
</svg>