<svg width="514" height="151" viewBox="0 0 514 151" fill="none" xmlns="http://www.w3.org/2000/svg">
<g clip-path="url(#clip0_6_82)">
<path d="M55.856 25.066V66.0741H18.1818V25.066H0.307617V122.958H18.1866V83.2805H55.8512V122.958H73.735V25.066H55.856ZM130.962 91.3176C130.962 95.2414 129.404 99.0044 126.629 101.779C123.855 104.553 120.092 106.112 116.168 106.112C112.244 106.112 108.481 104.553 105.707 101.779C102.932 99.0044 101.374 95.2414 101.374 91.3176V49.3854H84.4141V91.3176C84.4141 99.731 87.7563 107.8 93.7054 113.749C99.6545 119.698 107.723 123.04 116.137 123.04C124.55 123.04 132.619 119.698 138.568 113.749C144.517 107.8 147.859 99.731 147.859 91.3176V49.3854H130.962V91.3176ZM256.629 53.7064C256.629 45.108 262.314 42.3838 268.541 42.3838C273.564 42.3838 280.193 46.2064 284.533 50.8418L295.638 37.7483C290.093 30.2483 278.848 25.066 269.64 25.066C251.238 25.066 237.932 35.8418 237.932 53.7064C237.932 86.8515 278.441 76.3322 278.441 94.8838C278.441 100.603 272.887 105.655 266.529 105.655C256.498 105.655 253.246 100.753 248.64 95.566L236.311 108.384C244.198 118.061 253.924 122.977 265.57 122.977C283.053 122.977 297.114 112.071 297.114 95.0193C297.114 58.2257 256.6 69.6596 256.6 53.7064M507.245 107.319C497.224 107.319 494.374 102.984 494.374 96.3451V66.9499H509.954V52.0564H494.374V32.4064L477.177 40.1241V99.9983C477.177 115.313 487.745 123.031 502.232 123.031C504.506 123.069 506.78 122.885 509.016 122.489L513.211 107.043C511.319 107.174 509.146 107.305 507.245 107.305M195.521 49.8741C187.121 49.8741 181.256 52.3128 175.585 57.8725V25.6515H158.601V85.3757C158.601 107.731 174.762 123.05 192.927 123.05C213.075 123.05 230.8 107.46 230.8 86.4693C230.8 65.7402 214.488 49.8886 195.521 49.8886M195.414 105.955C192.883 105.955 190.376 105.456 188.038 104.488C185.699 103.519 183.574 102.099 181.785 100.309C179.995 98.5194 178.575 96.3945 177.606 94.056C176.638 91.7174 176.139 89.211 176.139 86.6797C176.139 84.1485 176.638 81.6421 177.606 79.3035C178.575 76.965 179.995 74.8401 181.785 73.0503C183.574 71.2604 185.699 69.8406 188.038 68.872C190.376 67.9033 192.883 67.4047 195.414 67.4047C200.526 67.4047 205.429 69.4355 209.044 73.0503C212.658 76.665 214.689 81.5677 214.689 86.6797C214.689 91.7918 212.658 96.6945 209.044 100.309C205.429 103.924 200.526 105.955 195.414 105.955ZM379.972 85.5789C379.972 64.5499 362.287 48.9983 342.1 48.9983C323.94 48.9983 307.774 64.3128 307.774 86.6725V146.431H324.758V114.166C330.419 119.716 336.293 122.164 344.683 122.164C363.651 122.164 379.967 106.313 379.967 85.5789M363.888 85.366C363.888 90.4781 361.857 95.3808 358.243 98.9955C354.628 102.61 349.725 104.641 344.613 104.641C339.501 104.641 334.599 102.61 330.984 98.9955C327.369 95.3808 325.338 90.4781 325.338 85.366C325.338 80.254 327.369 75.3513 330.984 71.7366C334.599 68.1218 339.501 66.091 344.613 66.091C349.725 66.091 354.628 68.1218 358.243 71.7366C361.857 75.3513 363.888 80.254 363.888 85.366Z" fill="#33475B"/>
<path d="M434.853 48.1757V31.1096C437.108 30.0556 439.017 28.3827 440.359 26.2857C441.7 24.1887 442.418 21.7538 442.43 19.2644V18.8725C442.43 11.6144 436.546 5.73055 429.288 5.73055H428.896C425.411 5.73055 422.068 7.11514 419.603 9.57973C417.139 12.0443 415.754 15.387 415.754 18.8725V19.2644C415.766 21.7538 416.484 24.1887 417.825 26.2857C419.167 28.3827 421.076 30.0556 423.332 31.1096V48.1757C416.85 49.1682 410.745 51.8556 405.636 55.966L358.832 19.5112C359.165 18.3064 359.34 17.0676 359.359 15.8241C359.365 12.8953 358.502 10.0305 356.879 7.59219C355.256 5.15389 352.947 3.25159 350.243 2.1259C347.539 1.00022 344.562 0.70173 341.689 1.26819C338.815 1.83465 336.174 3.24061 334.1 5.30823C332.026 7.37586 330.611 10.0122 330.035 12.8839C329.459 15.7556 329.748 18.7336 330.865 21.4411C331.982 24.1487 333.876 26.4642 336.309 28.0947C338.742 29.7253 341.604 30.5977 344.533 30.6015C347.096 30.5894 349.61 29.9054 351.825 28.6176L397.914 64.4822C393.773 70.737 391.613 78.0941 391.715 85.5944C391.817 93.0947 394.176 100.39 398.485 106.531L384.467 120.553C383.334 120.191 382.153 119.998 380.964 119.982C378.56 119.984 376.21 120.699 374.212 122.035C372.214 123.372 370.657 125.271 369.738 127.493C368.818 129.714 368.578 132.159 369.048 134.516C369.517 136.874 370.675 139.04 372.375 140.74C374.075 142.44 376.241 143.598 378.599 144.067C380.957 144.537 383.401 144.297 385.622 143.378C387.844 142.459 389.743 140.902 391.08 138.903C392.417 136.905 393.131 134.556 393.133 132.152C393.118 130.962 392.925 129.781 392.562 128.648L406.43 114.776C410.952 118.257 416.211 120.657 421.804 121.792C427.397 122.927 433.176 122.767 438.698 121.324C444.219 119.881 449.337 117.193 453.659 113.466C457.982 109.739 461.393 105.072 463.634 99.8234C465.874 94.5743 466.883 88.8821 466.583 83.1829C466.283 77.4837 464.683 71.9287 461.905 66.9434C459.127 61.9581 455.245 57.6749 450.556 54.4218C445.867 51.1687 440.495 49.0321 434.853 48.1757ZM429.104 104.305C426.541 104.375 423.99 103.931 421.602 102.999C419.213 102.067 417.036 100.666 415.198 98.878C413.36 97.0902 411.9 94.9521 410.902 92.5902C409.905 90.2283 409.391 87.6904 409.391 85.1265C409.391 82.5626 409.905 80.0247 410.902 77.6628C411.9 75.3009 413.36 73.1629 415.198 71.375C417.036 69.5872 419.213 68.1858 421.602 67.2537C423.99 66.3217 426.541 65.8778 429.104 65.9483C434.071 66.1222 438.777 68.2172 442.231 71.7919C445.684 75.3665 447.616 80.142 447.618 85.1123C447.621 90.0827 445.694 94.8601 442.244 98.4382C438.794 102.016 434.091 104.116 429.124 104.295" fill="#FF7A59"/>
</g>
<defs>
<clipPath id="clip0_6_82">
<rect width="512.903" height="150" fill="white" transform="translate(0.307617 0.998291)"/>
</clipPath>
</defs>
</svg>
