<svg width="658" height="150" viewBox="0 0 658 150" fill="none" xmlns="http://www.w3.org/2000/svg">
<g clip-path="url(#clip0_7_412)">
<path fill-rule="evenodd" clip-rule="evenodd" d="M1.27649 103.049C0.730742 104.472 1.47116 104.769 1.64669 105.021C3.27754 106.202 4.93393 107.058 6.5935 108.018C15.4658 112.71 23.8275 114.082 32.5723 114.082C50.3808 114.082 61.4553 104.603 61.4553 89.348V89.048C61.4553 74.9416 48.9446 69.8033 37.2638 66.1331L35.7351 65.6384C26.8946 62.7725 19.2669 60.2767 19.2669 54.4682V54.1714C19.2669 49.1927 23.735 45.5225 30.6286 45.5225C38.2882 45.5225 47.4159 48.0725 53.2563 51.2991C53.2563 51.2991 54.9861 52.4161 55.6148 50.7469C55.9563 49.8437 58.934 41.8746 59.2531 40.981C59.5914 40.0459 58.9978 39.3405 58.3882 38.9767C51.6861 34.8916 42.4308 32.115 32.8563 32.115L31.0786 32.1214C14.7701 32.1214 3.37648 41.9831 3.37648 56.0895V56.3927C3.37648 71.265 15.9509 76.1161 27.6956 79.4671L29.585 80.0544C38.1382 82.6842 45.5425 84.9693 45.5425 90.9693V91.2693C45.5425 96.7905 40.7234 100.908 32.9999 100.908C29.9967 100.908 20.4254 100.856 10.0531 94.3012C8.79882 93.5703 8.08393 93.0437 7.11691 92.4533C6.60627 92.1437 5.32967 91.5852 4.77435 93.2576L1.26372 103.024L1.27649 103.049ZM262.008 103.024C261.463 104.447 262.203 104.744 262.385 104.996C264.009 106.177 265.672 107.032 267.332 107.993C276.204 112.684 284.566 114.057 293.311 114.057C311.119 114.057 322.194 104.578 322.194 89.3224V89.0225C322.194 74.9161 309.715 69.7778 298.002 66.1076L296.473 65.6129C287.633 62.7469 280.005 60.2512 280.005 54.4427V54.1459C280.005 49.1671 284.473 45.4969 291.367 45.4969C299.027 45.4969 308.122 48.0469 313.995 51.2735C313.995 51.2735 315.724 52.3905 316.356 50.7214C316.695 49.8182 319.675 41.8491 319.963 40.9554C320.304 40.0203 319.707 39.315 319.101 38.9512C312.399 34.8661 303.144 32.0895 293.569 32.0895L291.788 32.0959C275.48 32.0959 264.086 41.9576 264.086 56.0639V56.3671C264.086 71.2395 276.661 76.0905 288.405 79.4416L290.291 80.0288C298.877 82.6586 306.249 84.9437 306.249 90.9437V91.2437C306.249 96.765 301.43 100.882 293.706 100.882C290.697 100.882 281.1 100.831 270.759 94.2756C269.505 93.5448 268.771 93.0405 267.82 92.4278C267.498 92.2235 265.995 91.6363 265.481 93.232L261.97 102.998L262.008 103.024ZM440.055 73.1256C440.055 81.7427 438.447 88.5405 435.3 93.3597C432.159 98.115 427.417 100.445 420.811 100.445C414.204 100.445 409.481 98.1342 406.385 93.3916C403.267 88.6044 401.694 81.7746 401.694 73.1576C401.694 64.5405 403.277 57.7746 406.385 53.0193C409.474 48.2959 414.172 46.0299 420.811 46.0299C427.449 46.0299 432.172 48.3182 435.3 53.0193C438.466 57.7746 440.055 64.5405 440.055 73.1576V73.1256ZM454.928 57.1682C453.463 52.2214 451.194 47.881 448.162 44.2427C445.127 40.6044 441.3 37.6682 436.736 35.5618C432.204 33.4395 426.842 32.3703 420.779 32.3703C414.715 32.3703 409.385 33.4459 404.821 35.5618C400.289 37.681 396.428 40.6044 393.396 44.2427C390.37 47.881 388.098 52.2214 386.63 57.1682C385.178 62.0831 384.44 67.4448 384.44 73.1576C384.44 78.8703 385.178 84.232 386.63 89.1469C388.088 94.0937 390.364 98.4342 393.396 102.072C396.431 105.711 400.289 108.615 404.821 110.689C409.385 112.758 414.747 113.811 420.779 113.811C426.811 113.811 432.172 112.758 436.704 110.689C441.236 108.621 445.098 105.711 448.13 102.072C451.158 98.4342 453.428 94.0937 454.896 89.1469C456.345 84.232 457.082 78.8703 457.082 73.1576C457.082 67.4767 456.345 62.0831 454.896 57.1682H454.928ZM577.13 98.0193C576.641 96.5735 575.231 97.1193 575.231 97.1193C573.07 97.9459 570.763 98.7118 568.305 99.0948C565.829 99.4842 563.071 99.6788 560.167 99.6788C552.986 99.6788 547.241 97.5374 543.156 93.2959C539.039 89.0512 536.741 82.2214 536.773 72.9661C536.796 64.5405 538.832 58.2214 542.486 53.3703C546.092 48.5831 551.646 46.0937 558.986 46.0937C565.114 46.0937 569.805 46.8054 574.72 48.3437C574.72 48.3437 575.885 48.8512 576.444 47.3161C577.749 43.7097 578.713 41.1246 580.114 37.1671C580.509 36.0342 579.539 35.5554 579.185 35.4182C577.257 34.665 572.706 33.4299 569.259 32.9097C566.036 32.4182 562.302 32.1629 558.089 32.1629C551.834 32.1629 546.281 33.232 541.525 35.3512C536.77 37.4671 532.749 40.3937 529.557 44.032C526.366 47.6703 523.94 52.0108 522.313 56.9576C520.701 61.8725 519.887 67.2661 519.887 72.9788C519.887 85.298 523.206 95.2874 529.781 102.596C536.355 109.936 546.249 113.638 559.142 113.638C566.77 113.638 574.589 112.097 580.206 109.872C580.206 109.872 581.279 109.355 580.813 108.104L577.142 98.0193H577.13ZM603.153 64.8278C603.865 60.0405 605.177 56.0512 607.238 52.9554C610.324 48.232 615.025 45.6469 621.632 45.6469C628.238 45.6469 632.611 48.2448 635.738 52.9554C637.813 56.0671 638.719 60.2001 639.057 64.8278L602.994 64.8214L603.153 64.8278ZM653.26 54.2959C651.992 49.5405 648.855 44.7214 646.813 42.5193C643.557 39.0405 640.398 36.5831 637.238 35.2427C632.678 33.3029 627.769 32.3075 622.813 32.3161C616.525 32.3161 610.813 33.3788 606.185 35.5395C601.557 37.7161 597.664 40.6778 594.6 44.3799C591.539 48.082 589.238 52.4544 587.77 57.465C586.302 62.4118 585.562 67.8373 585.562 73.5182C585.562 79.3267 586.331 84.7203 587.844 89.6033C589.372 94.5182 591.833 98.8267 595.152 102.401C598.471 106.008 602.716 108.816 607.822 110.795C612.897 112.758 619.056 113.776 626.109 113.753C640.663 113.705 648.322 110.466 651.45 108.711C652.008 108.398 652.535 107.859 651.878 106.304L648.59 97.081C648.086 95.7054 646.695 96.2033 646.695 96.2033C643.088 97.5501 637.982 99.9693 626.014 99.9373C618.195 99.9246 612.418 97.6171 608.78 94.0012C605.078 90.299 603.227 84.9054 602.939 77.2459L653.365 77.2842C653.365 77.2842 654.692 77.2714 654.83 75.9756C654.884 75.4395 656.556 65.6352 653.327 54.3054L653.26 54.2959ZM200.068 64.8278C200.78 60.0405 202.095 56.0512 204.153 52.9554C207.242 48.232 211.94 45.6469 218.547 45.6469C225.153 45.6469 229.525 48.2448 232.653 52.9554C234.724 56.0671 235.631 60.2001 235.972 64.8278L199.908 64.8214L200.068 64.8278ZM250.174 54.2959C248.911 49.5405 245.77 44.7214 243.728 42.5193C240.472 39.0405 237.313 36.5831 234.153 35.2427C229.592 33.3029 224.684 32.3075 219.728 32.3161C213.44 32.3161 207.728 33.3788 203.1 35.5395C198.472 37.7161 194.579 40.6778 191.515 44.3799C188.461 48.082 186.153 52.4544 184.685 57.465C183.22 62.4118 182.483 67.8373 182.483 73.5182C182.483 79.3267 183.246 84.7203 184.768 89.6033C186.294 94.5182 188.757 98.8267 192.045 102.401C195.364 106.008 199.608 108.816 204.715 110.795C209.789 112.758 215.917 113.776 223.002 113.753C237.555 113.705 245.215 110.466 248.342 108.711C248.898 108.398 249.428 107.859 248.767 106.304L245.48 97.081C244.972 95.7054 243.581 96.2033 243.581 96.2033C239.974 97.5501 234.868 99.9693 222.9 99.9373C215.113 99.9246 209.304 97.6171 205.666 94.0012C201.964 90.299 200.113 84.9054 199.825 77.2459L250.251 77.2842C250.251 77.2842 251.579 77.2714 251.716 75.9756C251.77 75.4395 253.442 65.6352 250.21 54.3054L250.174 54.2959ZM91.2382 97.7001C89.2627 96.1235 88.9882 95.7374 88.334 94.7129C87.3351 93.1714 86.8244 90.9788 86.8244 88.1703C86.8244 83.7661 88.2925 80.5746 91.3244 78.4363C91.2925 78.4427 95.6648 74.6703 105.941 74.798C110.515 74.88 115.079 75.2691 119.601 75.9629V98.8459H119.607C119.607 98.8459 113.224 100.221 106.012 100.655C95.767 101.271 91.2351 97.7065 91.267 97.7161L91.2382 97.7001ZM111.281 62.2746C109.238 62.1246 106.589 62.0512 103.43 62.0512C99.1212 62.0512 94.9404 62.5874 91.0468 63.6405C87.1212 64.7001 83.5787 66.3405 80.5468 68.5235C77.5065 70.6925 75.0057 73.5316 73.2382 76.8214C71.4542 80.1405 70.5446 84.0341 70.5446 88.4384C70.5446 92.9065 71.3202 96.7682 72.8521 99.9278C74.353 103.062 76.6129 105.771 79.4265 107.811C82.2255 109.847 85.6819 111.353 89.6712 112.247C93.6287 113.15 98.0968 113.606 103.012 113.606C108.182 113.606 113.32 113.172 118.299 112.333C122.539 111.602 126.764 110.78 130.969 109.869C132.648 109.483 134.512 108.976 134.512 108.976C135.756 108.66 135.661 107.329 135.661 107.329L135.632 61.3714C135.632 51.2863 132.938 43.7863 127.621 39.1586C122.323 34.531 114.568 32.2012 104.515 32.2012C100.749 32.2012 94.6531 32.7118 91.0148 33.4427C91.0148 33.4427 80.0361 35.5746 75.5042 39.1235C75.5042 39.1235 74.5085 39.7363 75.051 41.1246L78.6255 50.6991C79.0691 51.9405 80.2787 51.5161 80.2787 51.5161C80.2787 51.5161 80.6585 51.3661 81.1053 51.1012C90.7755 45.8352 103.031 45.9948 103.031 45.9948C108.456 45.9948 112.669 47.0959 115.478 49.2501C118.225 51.3597 119.627 54.548 119.627 61.2501V63.3788C115.318 62.7533 111.329 62.3927 111.329 62.3927L111.281 62.2746ZM516.6 36.3278C516.673 36.1593 516.712 35.9783 516.712 35.7951C516.712 35.6116 516.677 35.43 516.606 35.2609C516.536 35.0917 516.431 34.9385 516.3 34.8105C516.169 34.6822 516.013 34.5817 515.844 34.515C514.985 34.1895 510.705 33.2863 507.418 33.082C501.099 32.6863 497.588 33.7522 494.429 35.1693C491.307 36.5767 487.854 38.8395 485.939 41.4565L485.933 35.3288C485.933 34.4863 485.336 33.8065 484.487 33.8065H471.594C470.757 33.8065 470.151 34.4863 470.151 35.3288V110.329C470.151 110.734 470.314 111.122 470.601 111.409C470.885 111.695 471.274 111.857 471.68 111.858H484.892C485.298 111.857 485.684 111.695 485.971 111.409C486.258 111.122 486.418 110.734 486.418 110.329V72.6693C486.418 67.6267 486.973 62.6161 488.081 59.4565C489.172 56.332 490.656 53.8395 492.485 52.0522C494.231 50.326 496.363 49.0452 498.708 48.3182C500.907 47.6869 503.186 47.3668 505.474 47.3671C508.107 47.3671 510.996 48.0437 510.996 48.0437C511.966 48.1522 512.505 47.5586 512.834 46.6842C513.699 44.3831 516.153 37.4927 516.632 36.1203" fill="#00A1E0"/>
<path fill-rule="evenodd" clip-rule="evenodd" d="M393.195 1.71292C391.561 1.21935 389.901 0.825029 388.219 0.532085C385.96 0.154706 383.668 -0.0225778 381.377 0.00229584C372.271 0.00229584 365.094 2.57464 360.054 7.65549C355.05 12.698 351.645 20.38 349.937 30.4874L349.321 33.899H337.893C337.893 33.899 336.498 33.8416 336.204 35.3639L334.328 45.832C334.197 46.8341 334.628 47.4597 335.968 47.4533H347.094L335.805 110.463C334.921 115.537 333.91 119.712 332.789 122.875C331.685 125.996 330.606 128.335 329.279 130.033C327.993 131.677 326.773 132.886 324.67 133.592C322.934 134.176 320.936 134.444 318.747 134.444C317.528 134.444 315.907 134.239 314.71 134C313.513 133.764 312.891 133.496 311.994 133.119C311.994 133.119 310.689 132.621 310.175 133.93C309.757 134.999 306.792 143.153 306.441 144.162C306.084 145.158 306.585 145.943 307.217 146.169C308.697 146.699 309.799 147.037 311.816 147.513C314.618 148.174 316.979 148.215 319.19 148.215C323.825 148.215 328.047 147.564 331.548 146.3C335.071 145.027 338.138 142.809 340.851 139.805C343.784 136.566 345.629 133.174 347.394 128.546C349.139 123.96 350.627 118.266 351.817 111.631L363.16 47.4533H379.743C379.743 47.4533 381.14 47.5044 381.431 45.9884L383.307 35.5203C383.438 34.5182 383.011 33.8927 381.664 33.899H365.569C365.649 33.5352 366.38 27.8736 368.228 22.5438C369.016 20.2683 370.5 18.4331 371.757 17.1725C372.932 15.9719 374.378 15.072 375.973 14.5491C377.722 14.0083 379.548 13.7455 381.377 13.7704C382.893 13.7704 384.38 13.9523 385.513 14.1885C387.073 14.5204 387.68 14.6959 388.088 14.8172C389.729 15.3183 389.949 14.8331 390.271 14.0385L394.12 3.46826C394.516 2.33208 393.552 1.85335 393.195 1.71292ZM168.278 110.597C168.278 111.439 167.678 112.126 166.836 112.126H153.486C152.64 112.126 152.04 111.439 152.04 110.597V3.14591C152.04 2.30655 152.64 1.62677 153.486 1.62677H166.836C167.678 1.62677 168.278 2.30655 168.278 3.14591V110.597Z" fill="#00A1E0"/>
</g>
<defs>
<clipPath id="clip0_7_412">
<rect width="657.447" height="150" fill="white"/>
</clipPath>
</defs>
</svg>
