<svg xmlns="http://www.w3.org/2000/svg" xmlns:xlink="http://www.w3.org/1999/xlink" version="1.0" id="katman_1" x="0px" y="0px" viewBox="0 0 600 450" style="enable-background:new 0 0 600 450;" xml:space="preserve">
<style type="text/css">
	.st0{clip-path:url(#SVGID_00000124841858883539071970000008011597228831825330_);}
</style>
<g>
	<g>
		<defs fill="#ffffff">
			<rect id="SVGID_1_" x="159" y="57" width="282" height="336" fill="#ffffff"/>
		</defs>
		<clipPath id="SVGID_00000066498216834745103200000011099437779107867796_" fill="#ffffff">
			<use xlink:href="#SVGID_1_" style="overflow:visible;" fill="#ffffff"/>
		</clipPath>
		<path style="clip-path:url(#SVGID_00000066498216834745103200000011099437779107867796_);" d="M233.4,259.5    c-3.9,2.7-24.4,9.8-24.4-14.3v-78h-24.5v76.9c0,56.2,60.1,38.3,73.4,29.2V167.3h-24.5V259.5z M159,88.4V254    c0,77.8,56.2,101.4,140.8,138.1C384.1,355.4,440.6,332,440.6,254V88.4C353.3,42.2,229.2,51.2,159,88.4L159,88.4z M427.6,254    c0,65-39.9,85.2-127.8,124c-88.1-38.9-127.9-59-127.9-124v-94.8c76.7-70.4,173.7-75,255.7-67.4V254z M270.4,173.5v159.6h24.5    v-51.5c18.3,5.5,53.8-1.9,53.8-58.9C348.7,149.6,288.1,162,270.4,173.5L270.4,173.5z M294.9,261.5v-75.2c6.3-3.2,28.8-9.5,28.8,37    C323.7,274.1,296.4,262.1,294.9,261.5L294.9,261.5z M354.2,196.7c0.1,35.5,38.7,31.9,39.1,52.8c0.4,17.6-22.8,17.2-38.1,3.7v22.6    c27.2,16.1,61.4,6.1,62.4-25.1c1.3-38.6-40.6-34.9-40.1-54.9c0.4-15.2,22.9-15.4,36.4-1.7v-21.3    C392.6,156.2,354.1,165.8,354.2,196.7L354.2,196.7z M354.2,196.7" fill="#ffffff"/>
	</g>
</g>
</svg>