<svg width="739" height="150" viewBox="0 0 739 150" fill="none" xmlns="http://www.w3.org/2000/svg">
<g clip-path="url(#clip0_13_9)">
<path fill-rule="evenodd" clip-rule="evenodd" d="M226.827 0H23.2158C10.3303 0 -0.100785 10.5333 0.000734795 23.3166V101.039C0.000734795 113.924 10.4326 124.355 23.3181 124.355H119.754L163.831 148.899L153.809 124.355H226.827C239.713 124.355 250.143 113.924 250.143 101.039V23.3166C250.143 10.4311 239.713 0 226.827 0ZM18.9211 17.9987C16.0576 18.2033 13.91 19.2259 12.4783 21.1689C11.0466 23.0097 10.5353 25.3618 10.8421 28.0208C16.8758 66.3707 22.5004 92.2437 27.7159 105.641C29.7613 110.549 32.1134 112.902 34.8745 112.697C39.1697 112.39 44.2829 106.459 50.3166 94.9028C53.4869 88.3572 58.3957 78.5403 65.0429 65.4499C70.565 84.778 78.1326 99.3002 87.6437 109.015C90.3028 111.776 93.0639 113.004 95.7223 112.799C98.075 112.594 99.9152 111.367 101.143 109.117C102.165 107.174 102.574 104.924 102.37 102.368C101.756 93.0618 102.677 80.0741 105.233 63.4047C107.892 46.2241 111.165 33.8499 115.153 26.4868C115.971 24.9528 116.278 23.4188 116.176 21.578C115.971 19.2259 114.948 17.2829 113.006 15.7489C111.063 14.2149 108.915 13.4991 106.563 13.7036C103.597 13.9081 101.347 15.3398 99.8133 18.2033C93.473 29.7593 88.9729 48.4739 86.3145 74.4493C82.4281 64.6319 79.1553 53.0758 76.5988 39.4745C75.4741 33.4409 72.7131 30.5774 68.213 30.8842C65.1451 31.0887 62.5886 33.1341 60.5432 37.0201L38.147 79.665C34.4655 64.8364 30.9884 46.7354 27.8182 25.3618C27.1023 20.0441 24.1366 17.5896 18.9211 17.9987ZM215.987 25.3622C223.248 26.8962 228.668 30.7823 232.349 37.225C235.622 42.7474 237.258 49.3946 237.258 57.3713C237.258 67.9045 234.6 77.5175 229.281 86.3124C223.146 96.5391 215.169 101.652 205.249 101.652C203.511 101.652 201.67 101.448 199.726 101.039C192.466 99.5048 187.046 95.619 183.364 89.1761C180.092 83.5514 178.456 76.802 178.456 68.9272C178.456 58.394 181.115 48.781 186.432 40.0885C192.671 29.8619 200.647 24.7486 210.465 24.7486C212.203 24.7486 214.044 24.9531 215.987 25.3622ZM211.692 80.6877C215.476 77.313 218.032 72.3019 219.464 65.5525C219.873 63.2005 220.18 60.6438 220.18 57.9849C220.18 55.0192 219.566 51.849 218.339 48.6787C216.805 44.6904 214.76 42.5428 212.305 42.0315C208.624 41.3156 205.045 43.361 201.67 48.372C198.909 52.258 197.17 56.3487 196.25 60.5416C195.738 62.8937 195.534 65.4506 195.534 68.0071C195.534 70.9727 196.147 74.1428 197.375 77.313C198.909 81.3013 200.954 83.4488 203.408 83.9605C205.965 84.4715 208.726 83.3468 211.692 80.6877ZM168.229 37.225C164.547 30.7823 159.025 26.8962 151.866 25.3622C149.923 24.9531 148.083 24.7486 146.344 24.7486C136.527 24.7486 128.55 29.8619 122.312 40.0885C116.993 48.781 114.335 58.394 114.335 68.9272C114.335 76.802 115.971 83.5514 119.243 89.1761C122.925 95.619 128.345 99.5048 135.606 101.039C137.549 101.448 139.39 101.652 141.129 101.652C151.048 101.652 159.025 96.5391 165.161 86.3124C170.479 77.5175 173.137 67.9045 173.137 57.3713C173.137 49.3946 171.501 42.7474 168.229 37.225ZM155.343 65.5525C153.912 72.3019 151.355 77.313 147.571 80.6877C144.605 83.3468 141.844 84.4715 139.288 83.9605C136.833 83.4488 134.788 81.3013 133.254 77.313C132.027 74.1428 131.413 70.9727 131.413 68.0071C131.413 65.4506 131.617 62.8937 132.129 60.5416C133.049 56.3487 134.788 52.258 137.549 48.372C140.924 43.361 144.503 41.3156 148.184 42.0315C150.639 42.5428 152.685 44.6904 154.218 48.6787C155.446 51.849 156.059 55.0192 156.059 57.9849C156.059 60.6438 155.855 63.2005 155.343 65.5525Z" fill="#7F54B3"/>
<path fill-rule="evenodd" clip-rule="evenodd" d="M276.017 36.3041C269.165 43.0536 265.79 51.6439 265.79 62.075C265.79 73.222 269.165 82.3234 275.915 89.1754C282.664 96.0274 291.459 99.5041 302.401 99.5041C305.572 99.5041 309.151 98.993 313.037 97.8677V81.3007C309.458 82.3234 306.39 82.8351 303.731 82.8351C298.31 82.8351 294.016 80.9942 290.743 77.4149C287.471 73.7331 285.834 68.8246 285.834 62.5863C285.834 56.7572 287.471 51.9507 290.641 48.2691C293.913 44.4853 297.901 42.6445 302.81 42.6445C305.981 42.6445 309.355 43.1558 313.037 44.1785V27.6115C309.662 26.6911 305.879 26.282 301.89 26.282C291.459 26.1797 282.869 29.5545 276.017 36.3041ZM346.989 26.1797C337.581 26.1797 330.218 29.35 324.9 35.5881C319.582 41.8264 317.026 50.6213 317.026 61.8704C317.026 74.0402 319.684 83.3461 324.9 89.7891C330.115 96.232 337.785 99.5041 347.808 99.5041C357.523 99.5041 364.988 96.232 370.203 89.7891C375.419 83.3461 378.078 74.2448 378.078 62.5863C378.078 50.928 375.419 41.9287 370.101 35.5881C364.681 29.35 357.011 26.1797 346.989 26.1797ZM355.068 79.3578C353.227 82.2215 350.466 83.6533 346.989 83.6533C343.717 83.6533 341.262 82.2215 339.524 79.3578C337.785 76.4941 336.967 70.7675 336.967 62.075C336.967 48.6782 340.342 42.0309 347.194 42.0309C354.352 42.0309 358.034 48.7805 358.034 62.3818C357.932 70.7675 356.909 76.4941 355.068 79.3578ZM428.597 28.1228L424.915 43.7694C423.995 47.7578 423.075 51.8484 422.257 56.0413L420.211 66.8817C418.269 56.0413 415.61 43.1558 412.235 28.1228H388.509L379.612 97.7658H397.406L402.213 49.8031L414.382 97.7658H427.063L438.721 49.9053L443.732 97.7658H462.345L452.936 28.1228H428.597ZM513.784 28.1228L510.103 43.7694C509.182 47.7578 508.262 51.8484 507.444 56.0413L505.399 66.8817C503.456 56.0413 500.797 43.1558 497.422 28.1228H473.696L464.8 97.7658H482.593L487.4 49.8031L499.569 97.7658H512.251L523.807 49.9053L528.818 97.7658H547.43L538.022 28.1228H513.784ZM571.667 70.2564H588.336V55.8368H571.667V43.0535H590.893V28.225H552.85V97.8677H590.995V83.0397H571.667V70.2564ZM643.969 59.2115C645.912 56.0413 646.934 52.7688 646.934 49.394C646.934 42.8491 644.378 37.6335 639.265 33.8496C634.151 30.0658 627.095 28.1228 618.3 28.1228H596.415V97.7658H615.232V66.0635H615.539L630.776 97.7658H650.616L635.583 66.37C639.162 64.7339 642.026 62.3817 643.969 59.2115ZM615.13 58.0866V41.5196C619.629 41.6218 622.8 42.3377 624.743 43.7694C626.686 45.2011 627.606 47.451 627.606 50.7235C627.606 55.5299 623.413 57.9844 615.13 58.0866ZM657.977 36.3041C651.127 43.0536 647.752 51.6439 647.752 62.075C647.752 73.222 651.127 82.3234 657.878 89.1754C664.629 96.0274 673.419 99.5041 684.365 99.5041C687.535 99.5041 691.116 98.993 694.998 97.8677V81.3007C691.423 82.3234 688.351 82.8351 685.692 82.8351C680.274 82.8351 675.981 80.9942 672.707 77.4149C669.432 73.7331 667.799 68.8246 667.799 62.5863C667.799 56.7572 669.432 51.9507 672.602 48.2691C675.876 44.4853 679.862 42.6445 684.77 42.6445C687.94 42.6445 691.318 43.1558 694.998 44.1785V27.6115C691.625 26.6911 687.842 26.282 683.855 26.282C673.523 26.1797 664.832 29.5545 657.977 36.3041ZM719.034 82.8351V70.1538H735.698V55.7345H719.034V42.9513H738.358V28.1228H700.317V97.7658H738.462V82.9371H719.034V82.8351Z" fill="black"/>
</g>
<defs>
<clipPath id="clip0_13_9">
<rect width="738.462" height="150" fill="white"/>
</clipPath>
</defs>
</svg>
